<svg width="25" height="26" viewBox="0 0 25 26" fill="none" xmlns="http://www.w3.org/2000/svg">
<path d="M25 12.6597C25 5.66718 19.4043 0 12.5 0C5.5957 0 0 5.66718 0 12.6597C0 19.6522 5.5957 25.3193 12.5 25.3193C12.5732 25.3193 12.6465 25.3193 12.7197 25.3144V15.4636H10.0342V12.2937H12.7197V9.9596C12.7197 7.25458 14.3506 5.78092 16.7334 5.78092C17.876 5.78092 18.8574 5.86499 19.1406 5.90455V8.73319H17.5C16.2061 8.73319 15.9521 9.35629 15.9521 10.2711V12.2888H19.0527L18.6475 15.4586H15.9521V24.8298C21.1768 23.3116 25 18.4406 25 12.6597Z" fill="black"/>
</svg>
